<svg xmlns="http://www.w3.org/2000/svg" viewBox="0 0 48 48" fill="none" role="img" aria-label="Absendik">
  <defs>
    <linearGradient id="absendik-bg" x1="8" y1="4" x2="40" y2="44" gradientUnits="userSpaceOnUse">
      <stop stop-color="#047857"/>
      <stop offset="0.5" stop-color="#059669"/>
      <stop offset="1" stop-color="#0d9488"/>
    </linearGradient>
  </defs>
  <rect width="48" height="48" rx="14" fill="url(#absendik-bg)"/>
  <rect x="18" y="7" width="4" height="6" rx="2" fill="#fff" fill-opacity="0.95"/>
  <rect x="26" y="7" width="4" height="6" rx="2" fill="#fff" fill-opacity="0.95"/>
  <rect x="10" y="12" width="28" height="29" rx="6" fill="#fff" fill-opacity="0.98"/>
  <rect x="10" y="12" width="28" height="8.5" rx="6" fill="#ecfdf5"/>
  <rect x="10" y="16.5" width="28" height="4" fill="#ecfdf5"/>
  <rect x="17" y="14.5" width="14" height="3.5" rx="1.75" fill="#86efac"/>
  <rect x="10" y="20" width="28" height="1.25" fill="#bbf7d0"/>
  <rect x="10" y="25.5" width="13" height="12.5" rx="3" fill="#fecaca"/>
  <path d="M13.5 28.75 19.5 34.75 M19.5 28.75 13.5 34.75" stroke="#b91c1c" stroke-width="2.75" stroke-linecap="round"/>
  <rect x="25" y="25.5" width="13" height="12.5" rx="3" fill="#059669"/>
  <path d="M28.75 31.75 31.5 34.5 34.25 29.5" stroke="#fff" stroke-width="3" stroke-linecap="round" stroke-linejoin="round"/>
</svg>
