<svg xmlns="http://www.w3.org/2000/svg" viewBox="0 0 48 48" fill="none" role="img" aria-label="Catatan Guru">
  <defs>
    <linearGradient id="catatan-guru-bg" x1="6" y1="4" x2="42" y2="44" gradientUnits="userSpaceOnUse">
      <stop stop-color="#047857"/>
      <stop offset="0.55" stop-color="#059669"/>
      <stop offset="1" stop-color="#0d9488"/>
    </linearGradient>
  </defs>
  <rect width="48" height="48" rx="14" fill="url(#catatan-guru-bg)"/>
  <!-- buku catatan (tengah) -->
  <rect x="12" y="15" width="24" height="27" rx="4" fill="#fff" fill-opacity="0.98"/>
  <rect x="15.5" y="15" width="1.2" height="27" rx="0.6" fill="#fecaca"/>
  <rect x="18.5" y="20.5" width="13.5" height="1.5" rx="0.75" fill="#bbf7d0"/>
  <rect x="18.5" y="24.5" width="13.5" height="1.5" rx="0.75" fill="#bbf7d0"/>
  <rect x="18.5" y="28.5" width="13.5" height="1.5" rx="0.75" fill="#bbf7d0"/>
  <rect x="18.5" y="32.5" width="13.5" height="1.5" rx="0.75" fill="#bbf7d0"/>
  <rect x="18.5" y="36.5" width="13.5" height="1.5" rx="0.75" fill="#bbf7d0"/>
  <!-- pena (lebih kecil & tipis) -->
  <path d="M32 11.5 33.8 12.4 26.2 29.1 24.4 28.2 32 11.5Z" fill="#fb923c"/>
  <path d="M31 10.2 32.6 10.9 33.8 12.4 32 11.5 31 10.2Z" fill="#f9a8d4"/>
  <path d="M24.4 28.2 26.2 29.1 25.3 30.4 23.5 29.5 24.4 28.2Z" fill="#334155"/>
  <path d="M32.6 11.8 33.2 12.2" stroke="#fff" stroke-width="0.8" stroke-linecap="round" stroke-opacity="0.45"/>
</svg>
